<svg width="114" height="156" viewBox="0 0 114 156" fill="none" xmlns="http://www.w3.org/2000/svg">
<g filter="url(#filter0_ddddd_0_207)">
<rect x="31.5" y="5.5" width="63" height="63" rx="31.5" stroke="#020202" stroke-opacity="0.25"/>
<path d="M55.8002 30.7561H61.1439V37.1498H55.8002V30.7561ZM63.2627 30.7561H67.5377V31.8248H63.2627V30.7561ZM63.2627 36.0998H67.5377V37.1686H63.2627V36.0998ZM63.2627 33.4186H67.5377V34.4873H63.2627V33.4186ZM55.8002 38.7998H67.5189V39.8686H55.8002V38.7998ZM55.8002 44.0123H67.5189V45.0811H55.8002V44.0123ZM55.8002 41.3311H67.5189V42.3998H55.8002V41.3311ZM55.5002 25.2998V27.3436H53.1377V48.7561H70.5002V46.7123H72.8627V25.2998H55.5002ZM69.4314 47.7061H54.1877V28.3936H55.5002H56.5689H69.4314V45.6248V46.6936V47.7061ZM71.8127 45.6436H70.5002V27.3248H56.5689V26.3686H71.8127V45.6436Z" fill="#A0A0A0"/>
</g>
<defs>
<filter id="filter0_ddddd_0_207" x="0" y="0" width="114" height="156" filterUnits="userSpaceOnUse" color-interpolation-filters="sRGB">
<feFlood flood-opacity="0" result="BackgroundImageFix"/>
<feColorMatrix in="SourceAlpha" type="matrix" values="0 0 0 0 0 0 0 0 0 0 0 0 0 0 0 0 0 0 127 0" result="hardAlpha"/>
<feOffset/>
<feColorMatrix type="matrix" values="0 0 0 0 0 0 0 0 0 0 0 0 0 0 0 0 0 0 0.1 0"/>
<feBlend mode="normal" in2="BackgroundImageFix" result="effect1_dropShadow_0_207"/>
<feColorMatrix in="SourceAlpha" type="matrix" values="0 0 0 0 0 0 0 0 0 0 0 0 0 0 0 0 0 0 127 0" result="hardAlpha"/>
<feOffset dy="4"/>
<feGaussianBlur stdDeviation="4.5"/>
<feColorMatrix type="matrix" values="0 0 0 0 0 0 0 0 0 0 0 0 0 0 0 0 0 0 0.1 0"/>
<feBlend mode="normal" in2="effect1_dropShadow_0_207" result="effect2_dropShadow_0_207"/>
<feColorMatrix in="SourceAlpha" type="matrix" values="0 0 0 0 0 0 0 0 0 0 0 0 0 0 0 0 0 0 127 0" result="hardAlpha"/>
<feOffset dx="-1" dy="16"/>
<feGaussianBlur stdDeviation="8"/>
<feColorMatrix type="matrix" values="0 0 0 0 0 0 0 0 0 0 0 0 0 0 0 0 0 0 0.09 0"/>
<feBlend mode="normal" in2="effect2_dropShadow_0_207" result="effect3_dropShadow_0_207"/>
<feColorMatrix in="SourceAlpha" type="matrix" values="0 0 0 0 0 0 0 0 0 0 0 0 0 0 0 0 0 0 127 0" result="hardAlpha"/>
<feOffset dx="-3" dy="35"/>
<feGaussianBlur stdDeviation="10.5"/>
<feColorMatrix type="matrix" values="0 0 0 0 0 0 0 0 0 0 0 0 0 0 0 0 0 0 0.05 0"/>
<feBlend mode="normal" in2="effect3_dropShadow_0_207" result="effect4_dropShadow_0_207"/>
<feColorMatrix in="SourceAlpha" type="matrix" values="0 0 0 0 0 0 0 0 0 0 0 0 0 0 0 0 0 0 127 0" result="hardAlpha"/>
<feOffset dx="-6" dy="62"/>
<feGaussianBlur stdDeviation="12.5"/>
<feColorMatrix type="matrix" values="0 0 0 0 0 0 0 0 0 0 0 0 0 0 0 0 0 0 0.01 0"/>
<feBlend mode="normal" in2="effect4_dropShadow_0_207" result="effect5_dropShadow_0_207"/>
<feBlend mode="normal" in="SourceGraphic" in2="effect5_dropShadow_0_207" result="shape"/>
</filter>
</defs>
</svg>
