<svg width="114" height="156" viewBox="0 0 114 156" fill="none" xmlns="http://www.w3.org/2000/svg">
<g filter="url(#filter0_ddddd_0_213)">
<rect x="31.5" y="5.5" width="63" height="63" rx="31.5" stroke="#020202" stroke-opacity="0.25"/>
<g clip-path="url(#clip0_0_213)">
<path d="M53.7992 46.5224C54.2201 46.5224 54.5614 46.2897 54.5614 46.0027C54.5614 45.7156 54.2201 45.4829 53.7992 45.4829C53.3783 45.4829 53.0371 45.7156 53.0371 46.0027C53.0371 46.2897 53.3783 46.5224 53.7992 46.5224Z" fill="#A0A0A0"/>
<path d="M76.125 43.4177L75.8389 43.2497C75.817 43.237 73.6308 41.9398 73.0874 40.3657L72.9662 40.017L72.7423 40.3097C72.7353 40.3189 72.4246 40.703 71.5553 41.1536C70.9118 37.4904 68.7225 33.1172 65.8455 31.2526C66.668 31.3191 67.4931 31.2508 68.2894 30.9612C68.7689 30.7871 68.5619 30.0057 68.0781 30.1824C67.4253 30.42 66.7712 30.4847 66.1185 30.4515C67.7211 28.9828 68.9793 26.7319 68.9793 25.086C68.9793 24.6905 68.9793 23.9542 68.3931 23.9542C68.1577 23.9542 67.9674 24.1012 67.7044 24.3042C67.3011 24.6152 66.6921 25.086 65.7974 25.086C65.4566 25.086 64.8327 24.7264 64.3313 24.4376C63.7254 24.0889 63.3382 23.875 63.0127 23.875C62.4737 23.875 61.6814 24.3108 60.9823 24.6953C60.6979 24.8515 60.3089 25.0659 60.2284 25.0864C59.2152 25.0864 58.6267 24.6192 58.2365 24.3099C58.009 24.1287 57.8441 23.9975 57.624 23.9975C57.0474 23.9975 57.0474 24.6892 57.0474 25.4902C57.0474 27.0364 58.2251 29.0773 59.7673 30.4489C58.7956 30.5184 57.8375 30.812 57.1642 31.4643C56.7923 31.8239 57.3558 32.3944 57.7264 32.0357C58.2859 31.4932 59.0196 31.2609 59.8045 31.2158C59.8268 31.2959 59.8539 31.3746 59.8872 31.4521C56.5989 33.815 54.2631 39.4259 54.2631 43.2138C54.2631 43.5874 54.292 43.9256 54.3366 44.2441C53.4887 43.8674 53.1794 43.5371 53.1733 43.5297L52.9476 43.2694L52.8364 43.5975C52.3451 45.043 50.2092 46.2969 50.1878 46.3096L49.875 46.4911L50.1931 46.6631C50.3046 46.7234 50.4153 46.7764 50.5269 46.8337L50.3256 46.9733L50.4319 48.3032L58.7676 50.125L61.9281 48.1033C62.2471 48.1051 62.5699 48.1059 62.8985 48.1059L66.5928 50.125L74.9442 47.5V46.0961L74.7233 45.9635C74.8335 45.8935 74.9438 45.8222 75.0536 45.7487L75.3463 45.5531L75.2819 45.5216L75.6542 45.4197L75.7173 43.9602L75.502 43.8075C75.6166 43.7388 75.7308 43.6688 75.8454 43.5962L76.125 43.4177ZM57.8432 25.4902C57.8432 25.296 57.8458 25.1446 57.8498 25.0269C57.9167 25.0794 57.9946 25.1367 58.0777 25.1958C58.3328 25.8066 58.8153 26.6859 59.6334 27.2398C60.6274 27.9136 60.4953 27.1392 61.0256 26.4322C61.5558 25.7256 61.9146 25.3555 62.8027 27.1729C63.1899 27.9652 63.8352 25.751 64.4486 25.4277C64.6109 25.5161 64.7728 25.5983 64.9316 25.6683C66.0314 27.4568 66.5411 26.899 67.5181 25.4124C67.7867 25.2549 68.0072 25.086 68.1826 24.9508C68.1835 24.9915 68.1844 25.0366 68.1844 25.0869C68.1844 26.4913 67.0368 28.5055 65.6316 29.8193C65.5652 29.6507 65.4702 29.4948 65.3507 29.3586C64.7833 28.7159 63.8964 29.4286 63.476 29.8963C62.7301 29.6566 61.5147 28.9964 60.7228 29.3744C60.5256 29.4659 60.3445 29.5886 60.1864 29.7379C58.8914 28.5576 57.8432 26.8535 57.8432 25.4902ZM64.9324 30.2914C64.7363 30.2498 64.5412 30.2031 64.3475 30.1514C64.5916 29.9409 64.8156 29.8674 64.9097 30.1803C64.9198 30.2144 64.9259 30.2533 64.9324 30.2914ZM61.6074 30.5631C61.4626 30.5355 61.3139 30.5106 61.1607 30.4909C61.0446 30.4181 60.931 30.3415 60.8199 30.2612C61.2198 29.993 61.9093 30.1356 62.5682 30.3592C62.2431 30.392 61.9224 30.4629 61.6074 30.5631ZM61.8061 31.7181C61.5611 31.7793 61.2942 31.7548 61.0636 31.6629C61.1572 31.6135 61.2517 31.5706 61.3462 31.5273C61.4994 31.6012 61.6525 31.6629 61.8061 31.7181ZM53.7136 47.6658C52.6701 47.3636 51.6576 46.9633 50.6896 46.4701C51.2833 46.0799 52.5766 45.1362 53.1024 44.0022C53.4629 44.2852 54.2951 44.8015 55.9156 45.1979C55.888 45.2425 55.8543 45.2902 55.8219 45.337C54.4386 44.9748 53.6519 44.5167 53.6393 44.5088L53.4485 44.3951L53.3571 44.5994C53.2367 44.8671 52.9546 44.9074 52.7975 44.9074C52.7538 44.9074 52.7244 44.9043 52.7205 44.9039L52.5643 44.8811L52.5074 45.0308C52.3911 45.3361 51.9133 45.7351 51.7383 45.8633L51.4461 46.0777L51.7803 46.2146C51.9046 46.2654 51.9382 46.3122 51.94 46.3244C51.9444 46.3546 51.8914 46.4342 51.835 46.4802L51.5804 46.6854L51.8766 46.8223C52.4834 47.1023 53.1707 47.3342 53.858 47.5254C53.8033 47.5792 53.7561 47.6251 53.7136 47.6658ZM57.2416 46.0357C57.8532 46.1214 58.5309 46.1757 59.2712 46.1757H59.2716C59.4256 46.1757 59.5818 46.1731 59.7411 46.1683C59.7517 46.2013 59.7668 46.2326 59.7861 46.2614C59.8251 46.3205 59.8776 46.3695 59.9441 46.4076L58.8276 47.3617C58.8063 47.3608 58.785 47.3604 58.7637 47.3604C58.2662 47.3604 57.8952 47.5433 57.7172 47.8688C57.0425 47.7828 56.371 47.6738 55.7038 47.542C56.2402 47.0647 56.7534 46.562 57.2416 46.0357ZM52.2764 46.5594C52.3202 46.4767 52.3486 46.3765 52.3333 46.2671C52.3188 46.1685 52.2715 46.0775 52.199 46.009C52.3954 45.8406 52.6663 45.5807 52.815 45.3116C53.1532 45.3068 53.4323 45.1786 53.6082 44.952C53.9044 45.1069 54.5716 45.4197 55.5573 45.6909C55.1543 46.1963 54.6114 46.7694 54.1892 47.1955C53.5312 47.0214 52.8684 46.8114 52.2764 46.5594ZM58.5112 48.4008L58.4216 48.4013C58.0449 48.4013 56.7967 48.3706 55.1477 48.0272C55.2055 47.9782 55.2654 47.9279 55.321 47.8797C56.6589 48.1593 57.7378 48.2792 57.8187 48.2884L57.9788 48.3054L58.0282 48.1501C58.1363 47.815 58.5349 47.7656 58.7633 47.7656C58.8258 47.7656 58.8674 47.7695 58.8722 47.7699L58.9571 47.7791L60.8965 46.1219L60.3781 46.1048C60.2048 46.0987 60.1318 46.0597 60.1138 46.0331L60.2236 45.7456L59.92 45.7583C59.6986 45.7679 59.4825 45.7727 59.2712 45.7727H59.2708C58.66 45.7727 58.0934 45.7325 57.5697 45.6691L57.6914 45.5256C58.7484 45.6669 60.0141 45.7539 61.5422 45.743C61.1774 46.2549 60.2674 47.3429 58.5112 48.4008ZM62.8967 46.4999V47.2983C62.6478 47.2983 62.4054 47.2974 62.1683 47.2957L62.097 46.3971L61.5046 46.4452C61.9036 45.9736 62.0738 45.659 62.0891 45.6306L62.2497 45.3269L61.9106 45.3331C58.6652 45.3926 56.5486 45.0058 55.2125 44.5762C55.1149 44.1816 55.0585 43.7353 55.0585 43.2142C55.0585 39.6604 57.3296 34.2888 60.3448 32.1118C60.879 32.6285 61.6892 32.8547 62.4592 32.352C62.6281 32.2417 62.7751 32.0974 62.9129 31.9438C62.9458 31.9447 62.9794 31.9521 63.0127 31.9521C63.1229 31.9521 63.2349 31.9429 63.3465 31.9289C63.4878 31.9854 63.6261 32.0423 63.7542 32.0987C64.3681 32.3691 64.8922 32.2011 65.2501 31.8283C68.012 33.4996 70.2249 37.9205 70.8072 41.494C69.5446 41.9989 67.5417 42.4915 64.4678 42.5781C65.0742 42.2316 65.5292 41.6489 65.3656 40.8832C65.1936 40.0739 64.5173 39.8464 63.8168 39.8092C63.8151 39.429 63.8151 39.0497 63.8177 38.6695C64.0325 38.7644 64.2386 38.8738 64.4258 38.9906C64.7566 39.1984 65.0558 38.6599 64.7273 38.4521C64.4424 38.273 64.1383 38.1264 63.8207 38.015C63.8251 37.5749 63.8273 37.1356 63.8273 36.6964C63.8277 36.2939 63.2297 36.2939 63.2297 36.6964C63.2297 37.0827 63.2271 37.4686 63.2236 37.854C62.9052 37.7985 62.5802 37.7931 62.2602 37.8378C62.2082 37.5482 62.1451 37.2607 62.0712 36.9759C61.9723 36.5883 61.3948 36.7524 61.495 37.1413C61.5685 37.4209 61.6284 37.6991 61.6779 37.9813C61.6525 37.9909 61.6249 37.9957 61.6 38.0071C60.7898 38.3278 60.2954 39.1455 60.8882 39.9081C61.1643 40.2633 61.5252 40.4068 61.9202 40.4545C61.9417 40.9808 61.9552 41.5076 61.9706 42.0334C61.7059 41.8615 61.4648 41.641 61.2465 41.4078C60.9761 41.1226 60.5539 41.5631 60.8239 41.8479C61.1909 42.2386 61.5764 42.5339 61.9942 42.7229C62.013 43.1723 62.0397 43.6229 62.0834 44.07C62.1219 44.4668 62.7204 44.469 62.6815 44.07C62.6446 43.6833 62.6173 43.2957 62.5997 42.9076C62.8272 42.9469 63.0661 42.957 63.3198 42.9329C63.3482 43.3468 63.3815 43.7607 63.4288 44.1746C63.4559 44.4117 63.6825 44.5049 63.8496 44.4567L63.8124 45.316C63.5491 45.3396 63.2804 45.3615 63.0004 45.3799L62.6671 45.4017L62.8447 45.6888C62.8626 45.7176 63.0643 46.0366 63.5145 46.5007H62.8967V46.4999ZM73.7852 43.6203C73.2353 43.8788 72.5397 44.1159 71.8309 44.3229C71.3952 43.8727 70.8378 43.272 70.4218 42.7391C71.3488 42.4583 71.8677 42.1686 72.1017 42.0124C72.2868 42.1756 72.5318 42.2605 72.8219 42.2601C72.9181 42.2601 73.0034 42.2509 73.0691 42.2404C73.2791 42.5125 73.6177 42.8266 73.8294 43.0143C73.7292 43.1171 73.6807 43.2309 73.6846 43.3538C73.6881 43.4588 73.7301 43.5481 73.7852 43.6203ZM70.6549 45.0579C70.7442 45.1366 70.8365 45.2171 70.9306 45.2985C69.1569 45.7688 67.837 45.82 67.5496 45.8248C65.7129 44.7044 64.7609 43.5187 64.3939 42.985C65.9308 42.9465 67.2013 42.8074 68.2609 42.6157C68.304 42.6687 68.3476 42.7212 68.3918 42.7733C67.5401 42.9059 66.6817 42.991 65.8206 43.0283L65.4675 43.0432L65.6617 43.3403C65.6613 43.3407 65.6219 43.4142 65.3612 43.4649L64.9373 43.5476L67.0215 45.2351L67.1186 45.2088C67.1208 45.2084 67.3046 45.1589 67.5268 45.1589C67.8475 45.1589 68.0667 45.2565 68.1769 45.4473L68.2469 45.568L68.383 45.5439C69.1451 45.405 69.9027 45.2429 70.6549 45.0579ZM64.4875 43.7721L63.9896 43.7449C63.9664 43.4964 63.9433 43.2479 63.9258 42.9994C64.0133 43.1447 64.1926 43.4177 64.4875 43.7721ZM63.8715 42.1704C63.8428 41.5815 63.8254 40.992 63.8194 40.4024C63.8912 40.4051 63.9621 40.4116 64.0294 40.4212C64.8029 40.5385 65.0051 41.3986 64.4013 41.8825C64.2438 42.0072 64.0623 42.0986 63.8715 42.1704ZM68.4386 45.1244C68.2426 44.8824 67.9306 44.7556 67.5273 44.7556C67.3588 44.7556 67.2105 44.7783 67.1169 44.7967L65.8066 43.7349C65.9155 43.6723 65.989 43.5931 66.0292 43.496C66.0392 43.4718 66.0468 43.4468 66.052 43.4212C67.0906 43.3643 67.9656 43.2606 68.7054 43.1338C69.0642 43.5341 69.5914 44.0862 70.2905 44.728C69.4317 44.9323 68.7155 45.0723 68.4386 45.1244ZM63.2209 40.4182C63.2293 41.0521 63.245 41.6878 63.2787 42.3213C63.2222 42.3301 63.1667 42.341 63.1111 42.3467C62.923 42.3681 62.7445 42.3524 62.5747 42.3095C62.5533 41.697 62.5393 41.0832 62.5161 40.4702C62.7515 40.4593 62.9899 40.4361 63.2209 40.4182ZM62.4859 39.8647C62.4586 39.384 62.4134 38.9045 62.3503 38.4271C62.6403 38.3873 62.9352 38.4023 63.2196 38.4713C63.2165 38.9186 63.2158 39.3659 63.2174 39.8131C63.0254 39.8236 62.8429 39.842 62.6824 39.8564C62.617 39.8615 62.5515 39.8643 62.4859 39.8647ZM61.8857 39.7882C61.8485 39.7781 61.8118 39.7703 61.7737 39.7576C61.5986 39.6982 61.4401 39.5982 61.3112 39.4658C60.9376 39.1171 61.4504 38.7749 61.7737 38.6126C61.8244 39.002 61.8594 39.3949 61.8857 39.7882ZM66.7144 48.3046C64.8152 47.3342 63.7963 46.2558 63.3916 45.7561C63.6825 45.7342 63.9577 45.708 64.2303 45.6804L67.3444 47.7017L74.1737 45.8257C70.6519 47.9484 67.1724 48.2717 66.7144 48.3046ZM72.3546 44.8527C72.2986 44.7967 72.2317 44.7302 72.1525 44.6501C72.9295 44.4147 73.6811 44.1418 74.2416 43.8416L74.5824 43.6583L74.2367 43.4824C74.1593 43.4426 74.0836 43.3696 74.0823 43.342C74.0832 43.3315 74.1138 43.2755 74.2464 43.1994L74.4993 43.0541L74.2744 42.8669C74.2674 42.8612 73.5661 42.2789 73.3197 41.9039L73.2384 41.7814L73.0988 41.8221C73.0975 41.8221 72.9776 41.8567 72.8219 41.8567C72.5813 41.8571 72.401 41.7784 72.2855 41.6235L72.1577 41.4542L71.9976 41.592C71.9893 41.599 71.4936 42.0054 70.1641 42.3896C70.1203 42.3265 70.0781 42.2623 70.0376 42.1971C71.6498 41.7084 72.4736 41.1169 72.8306 40.7931C73.4038 42.033 74.7683 43.0318 75.3607 43.4234C74.409 43.9992 73.402 44.4781 72.3546 44.8527Z" fill="#A0A0A0"/>
<path d="M68.4162 43.6137C67.98 43.4952 67.4878 43.5761 67.3155 43.7927C67.1444 44.0101 67.3605 44.284 67.7963 44.4034C68.2329 44.522 68.7247 44.4406 68.897 44.2236C69.0681 44.0062 68.8528 43.7332 68.4162 43.6137Z" fill="#A0A0A0"/>
</g>
</g>
<defs>
<filter id="filter0_ddddd_0_213" x="0" y="0" width="114" height="156" filterUnits="userSpaceOnUse" color-interpolation-filters="sRGB">
<feFlood flood-opacity="0" result="BackgroundImageFix"/>
<feColorMatrix in="SourceAlpha" type="matrix" values="0 0 0 0 0 0 0 0 0 0 0 0 0 0 0 0 0 0 127 0" result="hardAlpha"/>
<feOffset/>
<feColorMatrix type="matrix" values="0 0 0 0 0 0 0 0 0 0 0 0 0 0 0 0 0 0 0.1 0"/>
<feBlend mode="normal" in2="BackgroundImageFix" result="effect1_dropShadow_0_213"/>
<feColorMatrix in="SourceAlpha" type="matrix" values="0 0 0 0 0 0 0 0 0 0 0 0 0 0 0 0 0 0 127 0" result="hardAlpha"/>
<feOffset dy="4"/>
<feGaussianBlur stdDeviation="4.5"/>
<feColorMatrix type="matrix" values="0 0 0 0 0 0 0 0 0 0 0 0 0 0 0 0 0 0 0.1 0"/>
<feBlend mode="normal" in2="effect1_dropShadow_0_213" result="effect2_dropShadow_0_213"/>
<feColorMatrix in="SourceAlpha" type="matrix" values="0 0 0 0 0 0 0 0 0 0 0 0 0 0 0 0 0 0 127 0" result="hardAlpha"/>
<feOffset dx="-1" dy="16"/>
<feGaussianBlur stdDeviation="8"/>
<feColorMatrix type="matrix" values="0 0 0 0 0 0 0 0 0 0 0 0 0 0 0 0 0 0 0.09 0"/>
<feBlend mode="normal" in2="effect2_dropShadow_0_213" result="effect3_dropShadow_0_213"/>
<feColorMatrix in="SourceAlpha" type="matrix" values="0 0 0 0 0 0 0 0 0 0 0 0 0 0 0 0 0 0 127 0" result="hardAlpha"/>
<feOffset dx="-3" dy="35"/>
<feGaussianBlur stdDeviation="10.5"/>
<feColorMatrix type="matrix" values="0 0 0 0 0 0 0 0 0 0 0 0 0 0 0 0 0 0 0.05 0"/>
<feBlend mode="normal" in2="effect3_dropShadow_0_213" result="effect4_dropShadow_0_213"/>
<feColorMatrix in="SourceAlpha" type="matrix" values="0 0 0 0 0 0 0 0 0 0 0 0 0 0 0 0 0 0 127 0" result="hardAlpha"/>
<feOffset dx="-6" dy="62"/>
<feGaussianBlur stdDeviation="12.5"/>
<feColorMatrix type="matrix" values="0 0 0 0 0 0 0 0 0 0 0 0 0 0 0 0 0 0 0.01 0"/>
<feBlend mode="normal" in2="effect4_dropShadow_0_213" result="effect5_dropShadow_0_213"/>
<feBlend mode="normal" in="SourceGraphic" in2="effect5_dropShadow_0_213" result="shape"/>
</filter>
<clipPath id="clip0_0_213">
<rect width="28" height="28" fill="white" transform="translate(49 23)"/>
</clipPath>
</defs>
</svg>
